<svg id="Layer_1" data-name="Layer 1" xmlns="http://www.w3.org/2000/svg" viewBox="0 0 216 100.61"><defs><style>.cls-1,.cls-2{fill:#fff;}.cls-2{font-size:15.27px;font-family:MyriadPro-Bold, Myriad Pro;font-weight:700;}.cls-3{letter-spacing:0.03em;}.cls-4{letter-spacing:0em;}.cls-5{letter-spacing:0.01em;}</style></defs><title>ARTWELL GRAPHICS Logo</title><polygon class="cls-1" points="16.82 89.35 15.48 91.67 46.43 91.67 47.77 89.35 51.59 82.73 30.96 82.73 32.3 80.41 36.12 73.79 67.08 73.79 63.25 80.41 61.91 82.73 58.1 89.35 56.75 91.67 52.94 98.29 51.59 100.61 0 100.61 1.35 98.27 5.17 91.67 6.51 89.35 10.32 82.73 11.66 80.41 15.48 73.79 16.82 71.47 20.64 64.87 21.98 62.55 25.79 55.93 69.75 55.93 73.57 62.55 74.91 64.87 30.96 64.87 27.14 71.47 25.8 73.79 21.98 80.41 20.64 82.73 16.82 89.35"/><polygon class="cls-1" points="68.28 46.99 34.65 46.99 35.98 44.67 39.8 38.06 52.79 38.06 51.45 35.74 47.64 29.12 46.3 26.81 42.47 20.18 41.14 17.88 39.82 20.18 35.99 26.81 34.65 29.12 30.82 35.75 29.5 38.06 25.67 44.69 24.33 46.99 20.51 53.61 19.17 55.93 15.35 62.55 14.01 64.87 3.68 64.87 5.04 62.55 8.85 55.93 10.19 53.61 14 46.99 15.35 44.67 19.17 38.06 20.51 35.74 24.33 29.12 25.66 26.8 29.48 20.18 30.82 17.86 34.64 11.26 35.98 8.94 39.8 2.32 41.14 0 42.48 2.32 46.3 8.94 47.64 11.26 51.46 17.88 52.79 20.18 56.62 26.8 57.96 29.12 61.77 35.74 63.11 38.06 66.94 44.67 68.28 46.99"/><text class="cls-2" transform="translate(77.05 64.94)">AR<tspan class="cls-3" x="19.07" y="0">T</tspan><tspan class="cls-4" x="27.86" y="0">WELL G</tspan><tspan class="cls-5" x="78.67" y="0">R</tspan><tspan x="87.86" y="0">APHICS</tspan></text></svg>